<svg xmlns="http://www.w3.org/2000/svg" viewBox="0 0 2777.28 1812.43"><defs><style>.cls-1{fill:#bad2f4;}.cls-2{fill:#c6dcf7;}.cls-3{fill:#d2e5f7;}.cls-4{fill:#8a9edd;}.cls-5{fill:#f4d4be;}.cls-6{fill:#9358e0;}.cls-7{fill:#7640cc;}.cls-8{fill:#d4e8ff;}.cls-9{fill:#1d3f70;}.cls-10{fill:#fff;}.cls-11{fill:#7689d6;}.cls-12{fill:#eef7ff;}.cls-13{fill:#eb5648;}.cls-14{fill:#f39200;}.cls-15{fill:#f9b233;}.cls-16{fill:#f99370;}.cls-17{fill:#395b96;}.cls-18{fill:#163260;}.cls-19{fill:#d1e0f2;}.cls-20{fill:#e57d61;}.cls-21{fill:#c16256;}.cls-22{fill:#3a72aa;}.cls-23{fill:#ce3932;}.cls-24{fill:#edebff;}.cls-25{fill:#662948;}.cls-26{fill:#e8c0a6;}.cls-27{fill:#fcb4b4;}.cls-28{fill:#f49f9f;}.cls-29{fill:#234270;}.cls-30{fill:#0b274f;}.cls-31{fill:#23659b;}.cls-32{fill:#4867aa;}.cls-33{fill:#8c4225;}.cls-34{fill:#ce4abf;}.cls-35{fill:#a523a2;}.cls-36{fill:#d1a68f;}.cls-37{fill:#617ac9;}</style></defs><g id="Layer_2" data-name="Layer 2"><g id="Ñëîé_1" data-name="Ñëîé 1"><g id="_13" data-name="13"><path class="cls-1" d="M491.45,1551.71S164.66,816.35,399.82,652.6C557,543.15,723.62,784.42,922.49,656.78c177-113.63,120.76-459.36,403.12-507.14,317.46-53.73,387.36,591.09,647.89,503,316.13-107,630.6,110.16,358.84,900.51Z"/><path class="cls-2" d="M235.76,1488.1c-5.49-14.11-10.92-28.74-16.14-43.46l12.86-3.22c5.19,14.64,10.58,29.17,16,43.19Zm2300.8-18.22-13.32-1.38c2.21-15,4.31-30.16,6.24-45l13.34,1.23C2540.89,1439.62,2538.78,1454.8,2536.56,1469.88Zm-2331.75-69c-4.7-14.55-9.25-29.38-13.54-44.07l13-2.68c4.26,14.6,8.78,29.34,13.45,43.81Zm2343.51-21.31-13.36-1.06c1.7-15.08,3.27-30.25,4.67-45.1l13.38.89C2551.6,1349.17,2550,1364.4,2548.32,1379.54ZM179,1312.45c-3.87-14.82-7.56-29.82-11-44.56l13.18-2.14c3.37,14.65,7,29.55,10.89,44.29Zm2377.85-23.51-13.39-.71c1.13-15.07,2.13-30.28,3-45.19l13.4.52C2559,1258.54,2558,1273.81,2556.86,1288.94ZM158.44,1223.09c-3-15-5.75-30.14-8.21-45l13.29-1.55c2.44,14.74,5.19,29.78,8.15,44.69Zm2403.44-24.95-13.42-.33c.53-15.14.89-30.36,1.08-45.24l13.42.12C2562.77,1167.64,2562.4,1182.93,2561.88,1198.14ZM143.49,1132.93c-2-15.17-3.74-30.41-5.17-45.33l13.37-.9c1.43,14.8,3.15,29.93,5.14,45Zm2406.1-25.61c-.15-15.15-.5-30.37-1-45.23l13.42-.32c.52,14.93.86,30.23,1,45.46ZM134.8,1042.16c-.89-15.25-1.48-30.57-1.75-45.52l13.41-.17c.27,14.82.86,30,1.74,45.14Zm2411.62-25.25c-.92-15.14-2.06-30.32-3.37-45.13l13.38-.84c1.32,14.9,2.46,30.17,3.39,45.39ZM146.59,951.32l-13.42-.23c.38-15.3,1.1-30.61,2.15-45.53l13.39.66C147.67,921,147,936.17,146.59,951.32ZM2538.4,926.74c-1.8-15.13-3.83-30.25-6-44.92l13.32-1.41c2.22,14.77,4.26,30,6.07,45.21ZM153,861.25l-13.36-1.13c1.83-15.23,4-30.46,6.61-45.25l13.28,1.62C157,831.12,154.77,846.18,153,861.25Zm2371.88-24.17c-2.79-15-5.85-30-9.11-44.52l13.19-2.08c3.28,14.62,6.37,29.71,9.18,44.86ZM938,835.49c-18.64-2.47-32.13-9.6-50.81-21.9l8.48-8.73c16.37,10.75,28.19,17.2,43.76,19.43Zm46.55-26.81-11.95-5.12c6.15-10.1,11.58-24.11,16.14-41.65l13.11,2.4C996.94,783.06,991.28,797.57,984.52,808.68Zm-136.74-27.4c-10.69-10-22.11-21.5-34.92-35.17l10.54-7c12.63,13.47,23.87,24.79,34.37,34.6ZM168.46,772l-13.17-2.15c3.47-15,7.41-30,11.69-44.56l13,2.7C175.78,742.38,171.89,757.19,168.46,772Zm2336.44-23.7c-4-14.88-8.26-29.63-12.74-43.85l13-2.88c4.52,14.35,8.85,29.24,12.86,44.26ZM1010.85,719l-13.31-1.43c2.06-13.45,3.91-28.18,5.65-45l13.37,1C1014.8,690.49,1012.93,705.37,1010.85,719ZM780,709.82c-10.91-12.37-22.22-25.44-32-36.73l10.86-6.61c9.73,11.26,21,24.31,31.89,36.63Zm982.34-.93a64.68,64.68,0,0,1-30.48-7.79l7.16-9.53c14.68,7.78,29.11,7.79,44.7,1.59l5.78,10.17A73.15,73.15,0,0,1,1762.34,708.89ZM194.28,684.62l-12.84-3.3c5.34-14.64,11.18-29.19,17.39-43.27L211.41,642C205.3,655.83,199.53,670.18,194.28,684.62Zm1639.09-10.74-9.86-7.65a401.36,401.36,0,0,0,33.35-34.88l10.87,6.6A413.79,413.79,0,0,1,1833.37,673.88Zm-139.66-7.75a335.32,335.32,0,0,1-26.3-40.49l12.12-4.82A326.88,326.88,0,0,0,1705,660Zm783.62-5c-5.4-14.6-11.17-29-17.14-42.71l12.61-3.86c6,13.91,11.88,28.46,17.35,43.23ZM716.23,636.37C704,622.28,693.73,610.71,684,600l10.69-6.8c9.74,10.79,20,22.4,32.33,36.54ZM1020.59,628l-13.39-.73c1-13.19,2-28,3.17-45.35l13.39.61C1022.65,599.88,1021.61,614.75,1020.59,628ZM231.52,600.26l-12.27-4.55q11-21,23.55-41.21l11.9,5.21Q242.4,579.56,231.52,600.26Zm1666.94,0-11.21-6.19c9.54-12.18,19.39-25.07,29.36-38.1l11.28,6.09C1917.9,575.12,1908,588,1898.46,600.26ZM1645.81,583.6c-6.08-12.8-12.36-26.77-19.2-42.7l12.62-3.82c6.79,15.81,13,29.66,19,42.34Zm794.64-7c-7.21-14.11-14.84-27.81-22.68-40.74l12-5.11c8,13.14,15.73,27.07,23.05,41.4ZM650.91,564.27c-12.18-12.69-23.51-24-34.65-34.52l10-7.48c11.28,10.68,22.75,22.11,35.06,34.94Zm375.65-27.2-13.41-.57c.91-15,1.81-30.1,2.76-45.43l13.4.59C1028.36,507,1027.46,522,1026.56,537.07ZM1957.31,524l-11.19-6.21c11.21-14.24,21.23-26.56,30.65-37.66l10.93,6.53C1978.37,497.66,1968.43,509.88,1957.31,524Zm-1676-3.18L270,514.77a358.87,358.87,0,0,1,32.32-37.22l10.25,7.27A347.88,347.88,0,0,0,281.31,520.83Zm1327.38-22.92c-6.15-15.14-12.19-30.29-17.28-43.11l12.73-3.56c5.08,12.8,11.11,27.93,17.25,43Zm-1029.32-.79a448.13,448.13,0,0,0-40.08-29.43l8.18-8.93a464.21,464.21,0,0,1,41.26,30.29Zm1812.35-.48a465.2,465.2,0,0,0-30-37l10.7-6.79a476,476,0,0,1,30.7,37.94ZM350.2,454.17l-8.14-9a171.14,171.14,0,0,1,49.57-22L395.55,434A156.61,156.61,0,0,0,350.2,454.17Zm1669.86-3.45-10.42-7.09a475.76,475.76,0,0,1,36.45-34.29l9.49,8A466.79,466.79,0,0,0,2020.06,450.72Zm-987.74-4.42-13.39-.68c1.16-16.37,2.31-31.24,3.52-45.46l13.39.81C1034.63,415.14,1033.48,430,1032.32,446.3Zm-537.39-2.36A181.28,181.28,0,0,0,446,430.67l1.82-11.17a196.93,196.93,0,0,1,53.11,14.35Zm1832.31-18.21a305.45,305.45,0,0,0-39.75-29.16l7.9-9.1a319.33,319.33,0,0,1,41.46,30.39Zm-752.95-14c-6.67-16.76-12.17-30.43-17.31-43l12.69-3.65c5.15,12.61,10.66,26.3,17.35,43.09Zm521.45-23.15-7.69-9.23A204.76,204.76,0,0,1,2137.59,358l4.14,10.71A190.55,190.55,0,0,0,2095.74,388.54Zm146.4-13.8a196.27,196.27,0,0,0-50-10.83l1.24-11.21a211.39,211.39,0,0,1,54,11.66Zm-1202-19-13.37-1c1.68-15.81,3.5-31.07,5.41-45.37l13.33,1.26C1043.6,324.84,1041.79,340,1040.13,355.74Zm499-29.91c-6.48-15.19-12.59-29.08-18.68-42.46l12.53-4c6.12,13.45,12.27,27.41,18.78,42.68ZM1052.34,265.7l-13.28-1.61c2.71-15.77,5.69-30.94,8.86-45.08l13.19,2.08C1058,235.08,1055,250.09,1052.34,265.7Zm448.18-24.39c-7.21-14.57-14.48-28.5-21.6-41.41l12.17-4.74c7.2,13.05,14.54,27.12,21.82,41.82Zm-428-64.3-13-2.74c4.68-15.73,9.84-30.55,15.34-44l12.69,3.65C1082.14,147.07,1077.09,161.58,1072.5,177Zm382.59-17.54c-8.83-14-17.84-27.06-26.8-38.94l11.34-6c9.14,12.12,18.32,25.47,27.31,39.67ZM1107.67,92.6l-12-5a221.87,221.87,0,0,1,29-39.4l10.54,7A210.08,210.08,0,0,0,1107.67,92.6ZM1397.54,84a301.06,301.06,0,0,0-36-32.49l9-8.36A315.28,315.28,0,0,1,1408,77ZM1172.65,26l-7.24-9.49a150.22,150.22,0,0,1,52-16.51l2,11.13A135.34,135.34,0,0,0,1172.65,26Zm146.59,0a183.11,183.11,0,0,0-48.39-14.38L1273.2.52a198.61,198.61,0,0,1,52.41,15.55Z"/><path class="cls-2" d="M2621.59,1309.1c-111.34-14.48-93.17,116.3-251.89,116.3-145.11,0-191.53-498-297.11-355.67-541.28,729.86-227-310.38-657.44-323.6-194.64-6-324.34,176.06-372.17,498.37C973.65,1535.88,812.86,1022.26,647.39,1070c-105.16,30.35-93.12,355.39-238.23,355.39-158.71,0-140.55-130.78-251.89-116.3C37.39,1324.68,1.58,1556.16,1.58,1556.16h2775.7S2741.47,1324.68,2621.59,1309.1Z"/><path class="cls-3" d="M2523,1450.66c-102.43-6.18-85.72,49.67-231.73,49.67-133.5,0-129.83-125.16-219.17-151.76-164.52-49-300.15,198.93-363.93,74.51-121.14-330.15-474.46-495.72-637.46,0-63.78,124.42-212.93-97.59-363.93-74.51-92.94,14.21-85.67,151.76-219.16,151.76-146,0-129.3-55.85-231.74-49.67-110.28,6.66-143.23,105.5-143.23,105.5H2666.22S2633.28,1457.32,2523,1450.66Z"/><path class="cls-1" d="M1.58,1556.16s-17.41,59.47,63.27,74.36c110.35,20.36,758.08,73.87,600.72,114.53-88.82,23,45.35,54.11,478,65.59s1175.07-33.49,925.41-100,694,4.59,708.29-154.46Z"/></g><g id="_12" data-name="12"><path class="cls-4" d="M2564.75,1614.35,2248,1551.77a67.38,67.38,0,0,1-53-79.16l118.4-599.29a67.38,67.38,0,0,1,79.16-53.05l316.76,62.58a67.38,67.38,0,0,1,53,79.16l-118.4,599.3A67.37,67.37,0,0,1,2564.75,1614.35Z"/><path class="cls-5" d="M2471.67,972.84l-123.16,30.21a63.63,63.63,0,0,1,123.16-30.21Z"/><path class="cls-5" d="M2399,1055.51a63.58,63.58,0,0,1-48-42.17l123.15-30.2a63.65,63.65,0,0,1-75.17,72.37Z"/><path class="cls-5" d="M2431.55,1175.86l-123.13,30.2a62.94,62.94,0,0,1,.42-22.29,63.61,63.61,0,0,1,122.71-7.91Z"/><path class="cls-5" d="M2358.92,1258.52a63.61,63.61,0,0,1-48-42.17l123.16-30.2a63.65,63.65,0,0,1-75.18,72.37Z"/><path class="cls-5" d="M2391.46,1378.86l-123.16,30.21a63.63,63.63,0,0,1,123.16-30.21Z"/><path class="cls-5" d="M2318.81,1461.53a63.59,63.59,0,0,1-48-42.17l123.15-30.2a63.65,63.65,0,0,1-75.17,72.37Z"/><path class="cls-5" d="M2606.2,1421.29l-123.13,30.2a63.61,63.61,0,0,1,123.13-30.2Z"/><path class="cls-5" d="M2533.57,1503.93a63.56,63.56,0,0,1-48-42.14l123.14-30.2a63.62,63.62,0,0,1-75.16,72.34Z"/><path class="cls-5" d="M2646.32,1218.28l-123.16,30.21a63.63,63.63,0,0,1,123.16-30.21Z"/><path class="cls-5" d="M2573.66,1300.93a63.6,63.6,0,0,1-47.95-42.15l123.13-30.2a62.84,62.84,0,0,1-.43,22.27A63.61,63.61,0,0,1,2573.66,1300.93Z"/><path class="cls-5" d="M2686.43,1015.27l-123.15,30.2a63.62,63.62,0,0,1,123.15-30.2Z"/><path class="cls-5" d="M2613.78,1097.94a63.63,63.63,0,0,1-48-42.17L2689,1025.56a63.7,63.7,0,0,1-75.18,72.38Z"/></g><g id="_11" data-name="11"><path class="cls-6" d="M1117,899v700.08c0,35.15,128,63.65,286,63.65s286-28.5,286-63.65V899Z"/><ellipse class="cls-7" cx="1403.01" cy="899" rx="285.99" ry="63.65"/><path class="cls-6" d="M1185,644.15v228c0,26.8,97.59,48.52,218,48.52s218-21.72,218-48.52v-228Z"/><ellipse class="cls-7" cx="1403.01" cy="644.15" rx="217.99" ry="48.52"/><circle class="cls-7" cx="1403.01" cy="1273.05" r="205.7" transform="translate(-489.25 1364.94) rotate(-45)"/><path class="cls-8" d="M1537.4,1281.59H1268.62a8.54,8.54,0,0,1,0-17.08H1537.4a8.54,8.54,0,0,1,0,17.08Z"/><path class="cls-8" d="M1537.4,1215.68H1268.62a8.54,8.54,0,1,1,0-17.07H1537.4a8.54,8.54,0,1,1,0,17.07Z"/><path class="cls-8" d="M1537.4,1347.49H1268.62a8.54,8.54,0,0,1,0-17.08H1537.4a8.54,8.54,0,0,1,0,17.08Z"/></g><g id="_10" data-name="10"><path class="cls-4" d="M523.56,1538.86l-319.07,49.46a67.39,67.39,0,0,1-76.91-56.26L34,928.39a67.38,67.38,0,0,1,56.27-76.91L409.34,802a67.38,67.38,0,0,1,76.91,56.26L579.83,1462A67.38,67.38,0,0,1,523.56,1538.86Z"/><path class="cls-9" d="M171.09,991.73s-41.05-33.45-41-33.48l35.35-43.34c14-18.39,45.67-9.27,47.18,13.68A26.43,26.43,0,0,1,206.79,948S171.12,991.78,171.09,991.73Z"/><path class="cls-10" d="M98,1039.14A26.48,26.48,0,0,1,94.39,1002l35.67-43.72s41.05,33.44,41,33.47C153.5,1008.64,129,1063.56,98,1039.14Z"/><path class="cls-9" d="M408.86,954.48S367.81,921,367.86,921l35.36-43.34c14-18.4,45.66-9.27,47.17,13.68a26.43,26.43,0,0,1-5.83,19.41S408.89,954.53,408.86,954.48Z"/><path class="cls-10" d="M335.78,1001.89a26.48,26.48,0,0,1-3.62-37.13L367.83,921s41.05,33.44,41,33.47C391.27,971.39,366.74,1026.31,335.78,1001.89Z"/><path class="cls-9" d="M245.9,1469.26s-41.05-33.44-41-33.47l35.36-43.35c14-18.39,45.66-9.26,47.17,13.69a26.39,26.39,0,0,1-5.82,19.4S245.93,1469.31,245.9,1469.26Z"/><path class="cls-10" d="M172.82,1516.68a26.49,26.49,0,0,1-3.62-37.13l35.67-43.73s41,33.45,41,33.48C228.31,1486.18,203.78,1541.1,172.82,1516.68Z"/><path class="cls-9" d="M483.67,1432s-41-33.44-41-33.47L478,1355.19c14-18.39,45.66-9.26,47.17,13.69a26.34,26.34,0,0,1-5.82,19.4S483.7,1432.06,483.67,1432Z"/><path class="cls-10" d="M410.59,1479.42A26.47,26.47,0,0,1,407,1442.3l35.67-43.73c.05,0,41.05,33.45,41,33.48C466.09,1448.93,441.55,1503.85,410.59,1479.42Z"/><path class="cls-9" d="M221,1310.08s-41-33.44-41-33.47l35.36-43.35c14-18.39,45.66-9.26,47.17,13.69a26.38,26.38,0,0,1-5.82,19.41S221,1310.13,221,1310.08Z"/><path class="cls-10" d="M147.89,1357.5a26.49,26.49,0,0,1-3.63-37.13l35.67-43.73s41,33.45,41,33.48C203.38,1327,178.84,1381.92,147.89,1357.5Z"/><path class="cls-9" d="M458.74,1272.83s-41.05-33.44-41-33.47L453.09,1196c14-18.39,45.66-9.26,47.17,13.69a26.34,26.34,0,0,1-5.82,19.4S458.76,1272.88,458.74,1272.83Z"/><path class="cls-10" d="M385.66,1320.25a26.49,26.49,0,0,1-3.63-37.13l35.67-43.73c.05,0,41.05,33.45,41,33.48C441.15,1289.75,416.62,1344.67,385.66,1320.25Z"/><path class="cls-9" d="M196,1150.91s-41.05-33.45-41-33.48l35.35-43.34c14-18.4,45.67-9.27,47.17,13.68a26.38,26.38,0,0,1-5.82,19.41S196.06,1151,196,1150.91Z"/><path class="cls-10" d="M123,1198.32a26.48,26.48,0,0,1-3.62-37.13L155,1117.47s41,33.44,41,33.47C178.44,1167.82,153.91,1222.74,123,1198.32Z"/><path class="cls-9" d="M433.8,1113.65s-41.05-33.44-41-33.47l35.35-43.35c14-18.39,45.67-9.26,47.17,13.69a26.34,26.34,0,0,1-5.82,19.4S433.83,1113.7,433.8,1113.65Z"/><path class="cls-10" d="M360.72,1161.07a26.48,26.48,0,0,1-3.62-37.13l35.67-43.73s41,33.45,41,33.48C416.21,1130.57,391.68,1185.49,360.72,1161.07Z"/><path class="cls-11" d="M358.62,1525.22a10.11,10.11,0,0,1-11.55-8.42L246.78,876.67a10.11,10.11,0,0,1,20-3.13l100.29,640.13A10.11,10.11,0,0,1,358.62,1525.22Z"/></g><g id="_9" data-name="9"><path class="cls-4" d="M1827.81,706.51l-11-85.26c-8.74-59.29-97.08-47.89-90.46,11.7l11,85.07c-38.46,21.21-63,64.82-56.79,111.66l101.84,787.67c20.58,146.23,247.89,116.42,230.58-29.81L1911.12,799.87C1905.3,752.46,1870.27,717.42,1827.81,706.51Z"/><path class="cls-12" d="M1918.77,1577.48l-47.86,6.19L1747.63,630.19a24.13,24.13,0,0,1,47.86-6.19Z"/><rect class="cls-9" x="1817.37" y="787.45" width="56.66" height="7.88" transform="translate(-86.24 243.19) rotate(-7.37)"/><rect class="cls-9" x="1821.45" y="819.97" width="28.33" height="7.87" transform="translate(-90.49 242.17) rotate(-7.37)"/><rect class="cls-9" x="1829.39" y="881.38" width="28.33" height="7.87" transform="translate(-98.3 243.7) rotate(-7.37)"/><rect class="cls-9" x="1837.33" y="942.79" width="28.33" height="7.88" transform="translate(-106.11 245.22) rotate(-7.37)"/><rect class="cls-9" x="1845.27" y="1004.2" width="28.33" height="7.87" transform="translate(-113.92 246.74) rotate(-7.37)"/><rect class="cls-9" x="1853.21" y="1065.61" width="28.33" height="7.87" transform="translate(-121.73 248.27) rotate(-7.37)"/><rect class="cls-9" x="1861.15" y="1127.02" width="28.33" height="7.87" transform="translate(-129.53 249.79) rotate(-7.37)"/><rect class="cls-9" x="1869.09" y="1188.43" width="28.33" height="7.87" transform="translate(-137.35 251.32) rotate(-7.37)"/><rect class="cls-9" x="1877.03" y="1249.84" width="28.33" height="7.87" transform="translate(-145.15 252.84) rotate(-7.37)"/><rect class="cls-9" x="1825.31" y="848.86" width="56.66" height="7.87" transform="translate(-94.05 244.72) rotate(-7.37)"/><rect class="cls-9" x="1833.25" y="910.27" width="56.66" height="7.87" transform="translate(-101.86 246.24) rotate(-7.37)"/><rect class="cls-9" x="1841.19" y="971.68" width="56.66" height="7.88" transform="translate(-109.66 247.77) rotate(-7.37)"/><rect class="cls-9" x="1849.13" y="1033.09" width="56.66" height="7.88" transform="translate(-117.47 249.29) rotate(-7.37)"/><rect class="cls-9" x="1857.06" y="1094.5" width="56.66" height="7.87" transform="translate(-125.28 250.82) rotate(-7.37)"/><rect class="cls-9" x="1872.94" y="1217.32" width="56.66" height="7.87" transform="translate(-140.9 253.87) rotate(-7.37)"/><rect class="cls-9" x="1880.88" y="1278.73" width="56.66" height="7.87" transform="translate(-148.71 255.39) rotate(-7.37)"/><rect class="cls-9" x="1884.97" y="1311.25" width="28.33" height="7.87" transform="translate(-152.96 254.37) rotate(-7.37)"/><rect class="cls-9" x="1892.91" y="1372.66" width="28.33" height="7.87" transform="translate(-160.77 255.9) rotate(-7.37)"/><rect class="cls-9" x="1888.82" y="1340.14" width="56.66" height="7.87" transform="translate(-156.52 256.92) rotate(-7.37)"/><rect class="cls-9" x="1896.76" y="1401.55" width="56.66" height="7.87" transform="translate(-164.33 258.44) rotate(-7.37)"/><rect class="cls-9" x="1900.85" y="1434.07" width="28.33" height="7.87" transform="translate(-168.58 257.42) rotate(-7.37)"/><rect class="cls-9" x="1904.7" y="1462.96" width="56.66" height="7.87" transform="translate(-172.13 259.97) rotate(-7.37)"/><rect class="cls-9" x="1865" y="1155.91" width="56.66" height="7.87" transform="translate(-133.09 252.34) rotate(-7.37)"/><path class="cls-9" d="M1913.38,1529c-18.51-141.72-33.2-265.28-33.2-265.28-1.69-13.72-16.65-22-30.26-19-12.78,1.65-21.84,13-20.23,25.4L1864,1535.41c-24.19,11.49-41.94,35.47-38.1,70,13.29,90.33,152.22,72.38,142.11-18.37C1962.84,1552.07,1940.26,1533.6,1913.38,1529Z"/></g><g id="_8" data-name="8"><path class="cls-13" d="M1268.45,1738.55s10.83-93.27,10.92-93.23l98.53,11.5c40.85,3.39,57.41,59.42,24.55,83.57a46.83,46.83,0,0,1-34.57,9.81S1268.4,1738.64,1268.45,1738.55Z"/><path class="cls-10" d="M1127.85,1674.54a47,47,0,0,1,52-40.84l99.4,11.61c.11,0-10.83,93.27-10.89,93.27C1226.38,1728.39,1120.88,1744.12,1127.85,1674.54Z"/></g><g id="_7" data-name="7"><path class="cls-14" d="M1721.17,1645.07v42.58c0,34.36-59.34,62.22-132.53,62.22-36.91,0-70.31-7.09-94.34-18.52-23.61-11.24-38.19-26.67-38.19-43.7v-42.58Z"/><path class="cls-15" d="M1721.17,1645.07c-1.24,74.45-249.13,90.26-264.54,5.55a35.56,35.56,0,0,1-.5-9c3.67-49.31,115.51-69.73,192.85-52C1687.25,1598.37,1717.08,1616.49,1721.17,1645.07Z"/><path class="cls-14" d="M1649.37,1589.75l-116.28,116.39c-3-.6-5.3-2.35-8.19-3.06l113.84-115.67C1641.76,1588,1646.47,1589.05,1649.37,1589.75Z"/></g><g id="_6" data-name="6"><path class="cls-14" d="M368.91,1627.34v42.58c0,34.36-59.33,62.22-132.52,62.22-36.92,0-70.31-7.09-94.34-18.53-23.62-11.23-38.19-26.66-38.19-43.69v-42.58Z"/><path class="cls-15" d="M368.91,1627.33c-1.24,74.46-249.13,90.26-264.53,5.56a35.2,35.2,0,0,1-.51-9c3.68-49.3,115.52-69.73,192.86-52C335,1580.64,364.82,1598.76,368.91,1627.33Z"/><path class="cls-14" d="M297.11,1572,180.84,1688.41c-3-.61-5.3-2.36-8.2-3.06l113.85-115.68C289.5,1570.28,294.22,1571.32,297.11,1572Z"/></g><g id="_5" data-name="5"><path class="cls-16" d="M2406.93,1402.76c6.15,93.13,17.73,186.06,30.47,278.51,3,21.9,29.07,26.08,31.49,2.18,2.18-23.74,1.51-46,3.4-69.88,4.35-69.59,10.53-139.29,18.24-208.6C2495.83,1344.84,2404.83,1342.31,2406.93,1402.76Z"/><path class="cls-16" d="M2474.09,1411.1l76.23,276.17c2.45,9.23,8.56,12.55,17.77,10.09,8.21-2.2,13.43.5,12.72-7.72l-24.35-293C2549.58,1336.91,2460.35,1352.51,2474.09,1411.1Z"/><path class="cls-9" d="M2437.4,1681.27c-35.52,1.71-45.86,13.83-48.77,22l-.05.12a5.5,5.5,0,0,0,5.21,7.28l77.28.26a19.58,19.58,0,0,0,2.35-7.39c1.31-10.51-4-22.11-4-22.11S2453.42,1685.51,2437.4,1681.27Z"/><path class="cls-17" d="M2388.63,1703.22l84.79.27a19.58,19.58,0,0,1-2.35,7.39l-77.28-.26a5.5,5.5,0,0,1-5.21-7.28Z"/><path class="cls-9" d="M2543,1702.67v6.94h44.87v-6.94a22.44,22.44,0,1,0-44.87,0Z"/><rect class="cls-17" x="2542.96" y="1702.67" width="44.87" height="6.94"/><path class="cls-18" d="M2561.85,1007.18c8.55,14.82,5.08,32.84-7.75,40.25s-30.18,1.41-38.73-13.41-5.09-32.84,7.74-40.25S2553.29,992.36,2561.85,1007.18Z"/><path class="cls-18" d="M2526.15,1022.68s30.24-11.91,33.12-55.16c3-45.39-41.41-54.51-59.3-41.61Z"/><path class="cls-10" d="M2469,1056.21s-71.7,16.35-100.26,119.91l72.38,16.48Z"/><path class="cls-19" d="M2440,1084s-22,20.47-26.63,33.27,12.66,13.58,12.66,13.58Z"/><path class="cls-18" d="M2508.44,922c-43.77-12.32-72.88,51.28-51.88,84.42Z"/><path class="cls-16" d="M2556.39,1284.7H2419.77A652.09,652.09,0,0,1,2438,1123.59c7.57-30.62,11.92-55.1,41.1-71.46-2.08-18.13.76-44.28,3.29-55.05,1.33-5.82,5.49-10.22,10.17-11.68,12-4.16,26.14,6,22.45,19.53-1.08-.68-4.55,37.78-2.16,48.46,59.31,18.93,29.08,86.3,33.13,131.5C2546.28,1218.11,2549.48,1252.23,2556.39,1284.7Z"/><path class="cls-20" d="M2515.33,1003.18c-.09.58-.19,1.18-.33,1.75-.78-.52-3,20.7-3,36.11-14.47,6.58-30.56,3.62-33.52,3-.83-21.07-1.68-52.91,14.06-58.65C2503.85,980.57,2517.32,990.86,2515.33,1003.18Z"/><path class="cls-16" d="M2538.07,989c-2.43,15.08-7.52,32.08-19.43,42.06h0a37.61,37.61,0,0,1-16.89,7.76c-35.19,9.85-76.46-31.06-49-60.86,10-9.23,12.11-25.59,20.08-34.78,11.58-16.81,37-15.93,50.73-2.23C2536,953.34,2540.22,970.42,2538.07,989Z"/><path class="cls-21" d="M2480.52,979.69c-1.38-2.62,2.77-4.73,4.07-2.06S2481.82,982.35,2480.52,979.69Z"/><path class="cls-21" d="M2461.33,976.47c-1.38-2.62,2.76-4.73,4.07-2.07S2462.63,979.13,2461.33,976.47Z"/><path class="cls-21" d="M2468.58,996.32c-4.18-.05-10.67-2.87-5.39-6.58,4.31-2.33,7.48-11.28,7.51-11.37,4.46-3.36-1.88,10.56-6.69,12.89-3.38,2.07,3.67,4.08,6.58,3a.88.88,0,0,1,1.09.56C2471.92,996.42,2469.66,996.2,2468.58,996.32Z"/><path class="cls-13" d="M2382.59,1570.56s101.86,56.18,217.58.47c0,0-.78-11.06-2.15-29.24-6-80.65-23.34-301.58-33.48-321.68a345.52,345.52,0,0,1-47.8,8.69c-35.18,4.09-77.42,3.85-110.61.12-4.48,23.24-21.74,240-23.41,329C2382.63,1562.5,2382.59,1566.72,2382.59,1570.56Z"/><path class="cls-22" d="M2563.08,1215s-67,59.4-157,13.9c.12-.16,12.69-141.64,73-176.79,0,0-7.26,27.5,33.75,1.26C2563.45,1070,2544.38,1151.53,2563.08,1215Z"/><path class="cls-23" d="M2406.12,1228.92s80.75,32.76,157-13.9l8.31,20.55s-62.24,53.06-167.84,17.75Z"/><path class="cls-10" d="M2516.75,1228.8c0,.12,0,.25,0,.38,3.2,25.07,7.08,160,7.08,280.37,0,0,4.4.51,11.41.79,18.85.8,56.58,0,78.21-16.59,0,0-12.79-233.08-16.62-253.53-10.42-61.82-42.29-124-71.54-175.78l-4.54-8C2484,1107.26,2504.81,1168.66,2516.75,1228.8Z"/><path class="cls-20" d="M2538.07,989c-2.43,15.08-7.52,32.08-19.43,42.06h0c6.6-8.2,10.72-26.54,10.72-26.54l-3.12-8.15c-52.36-16.9-47.91-59.09-47.91-59.09,7.81-6.83,18.39-8.07,28.43-5.58C2531.32,938.05,2541.16,964.6,2538.07,989Z"/><path class="cls-18" d="M2483.63,933.43s-3.93,41.7,42.93,58.72l16.81-9.28C2559.78,950.69,2529.8,903.2,2483.63,933.43Z"/><path class="cls-10" d="M2376.31,1503.73c4.11,3.45,11,5.16,16.89,6h0a81,81,0,0,0,10.35.82c8.73-59.84,24.86-323.15,36.56-382.44,0-.24.09-.47.14-.69,6.27-27.42,25-52,38.84-75.29l-1.38.44c-58.17,19.27-68.69,114.8-78.77,239.24C2391.67,1381.53,2376.31,1503.73,2376.31,1503.73Z"/><path class="cls-19" d="M2522.14,1273s45.43,8.73,76.82-12.79c0,0-.05-11.48-2.09-20s-75.47,26.31-75.47,26.31Z"/><path class="cls-19" d="M2516.75,1228.8c0,.12,0,.25,0,.38,3.2,25.07,7.08,160,7.08,280.37,0,0,4.4.51,11.41.79l-8.81-274.24c-15.83-65.71-37.7-130.06-5.68-179.65a29.23,29.23,0,0,0-3.94-1.9,25.18,25.18,0,0,0-4-1.16C2476,1104.21,2504.81,1168.66,2516.75,1228.8Z"/><path class="cls-19" d="M2393.2,1509.72h0a81,81,0,0,0,10.35.82c8.73-59.84,24.86-323.15,36.56-382.44,0-.24.09-.47.14-.69,6.27-27.42,25-52,38.84-75.29l-1.38.44a63,63,0,0,0-8.67,3.61,138.47,138.47,0,0,0-8.83,11.08c-15.23,20.51-28.25,47.36-31.59,75C2422.5,1191.55,2399.34,1459.45,2393.2,1509.72Z"/><path class="cls-19" d="M2511.2,1129.19s4.43,17.23,18.49,37,36.9,60.29-13.13,61.28l2,15.08,55.88-6.68-11.32-77.09Z"/><path class="cls-16" d="M2537.1,1066.14c37.19,27.5,72.59,78.7,76.26,124.14,3.84,86.21-76.4,93.09-137.55,59.87-12.89-6.55-2.17-26.36,11.66-22.69,10.07,2.58,17.2,4.85,27.13,5.13,88.16,2.46,35.11-68.56.92-100.52C2515.52,1132.07,2512.24,1048.69,2537.1,1066.14Z"/><path class="cls-10" d="M2599.35,1254.36c-8.54,5-19.09,8.84-31.89,11.08,0,0-.16-28.18-19.42-37.39,0,0,17.94-24.85-6.68-58.31-13.37-18.17-30.8-30.47-33.68-54.49-1.73-14.49,13.11-58.8,13.11-58.8,15,3.92,55.18,18.48,81.8,60C2633.4,1164.46,2645.37,1227.26,2599.35,1254.36Z"/><polygon class="cls-9" points="2468.17 1282.9 2369.31 1275.3 2338.93 1106.07 2437.78 1113.67 2468.17 1282.9"/><path class="cls-16" d="M2362,1216.12c-4.33.85-12.95-3.95-6.36-7.84,2.5-1.34,4.85-.14,6.88.67l-.21,0C2369,1208.66,2367.91,1215.81,2362,1216.12Z"/><path class="cls-16" d="M2359.61,1209.58c-3-.34-6.25-1.44-7.66-4.27-1.88-4.56,7.51-7.14,9.17-3.11,0-.09-.11-.09.08,0a2.79,2.79,0,0,0,.79.23s.13,0,0,0C2368.7,1203.39,2364.87,1210.31,2359.61,1209.58Z"/><path class="cls-16" d="M2356.85,1202.8l-4.1-1.51c-5.88-2.76,1-8.49,5.16-6.53l4.09,1.52C2367.89,1199,2361,1204.76,2356.85,1202.8Z"/><path class="cls-16" d="M2355.53,1196.54l-4.09-1.52c-5.89-2.75,1-8.48,5.15-6.53l4.1,1.52C2366.57,1192.76,2359.65,1198.49,2355.53,1196.54Z"/><path class="cls-16" d="M2488.67,1238.4a5,5,0,0,0-.8-2.63c1.34-1.63,2.39-6.14.94-8-7.11-8.91-25.08-14.12-35.38-15.59a61.35,61.35,0,0,0-12.33-.48c-4,.14-4.06,6.41,0,6.58a53.65,53.65,0,0,1,12.84,2.35A116.39,116.39,0,0,0,2438,1220c-3.9,0-4.37,6-.46,6.55a117.26,117.26,0,0,1,21.84,5.43,205.9,205.9,0,0,1-20.75-3.59c-4-1-5.61,5.26-1.64,6.37a214.29,214.29,0,0,0,22.79,5.67c-3.9-.23-7.91-.66-11.78-1.15s-5.14,5.52-1.24,6.46c1.43.38,2.85.77,4.28,1.14,10.14,2.51,20.5,4.43,31,4.57,5,.56,8.5-5.52,5.23-9.43A5,5,0,0,0,2488.67,1238.4Z"/><path class="cls-21" d="M2507.16,995.14a.76.76,0,0,1-.09-1.51l19.4-2.23a.76.76,0,0,1,.17,1.51l-19.4,2.23Z"/><path class="cls-21" d="M2514,1019.62a.76.76,0,0,1-.39-1.42l19.72-11.77a.76.76,0,0,1,1,.27.75.75,0,0,1-.26,1l-19.72,11.77A.79.79,0,0,1,2514,1019.62Z"/><path class="cls-16" d="M2547.65,996.61c-3.71,17.14-24.64,12.72-21.09-4.46C2530.27,975,2551.19,979.44,2547.65,996.61Z"/><path class="cls-21" d="M2542.21,1000.16a.88.88,0,0,1-.83-1.12c3.27-9.12-.77-12.95-6.92-10.42a.86.86,0,0,1-.63-1.61c7.2-2.94,13.11,1.62,9.2,12.53A.85.85,0,0,1,2542.21,1000.16Z"/><path class="cls-21" d="M2534.14,999c-2.68-.22,2.44-8.49,9-8.94a.87.87,0,0,1,.11,1.73C2536.54,992.43,2535.73,998.72,2534.14,999Z"/><path class="cls-5" d="M2538.21,1004.52c0,2.52-3.92,2.52-3.88,0S2538.24,1002,2538.21,1004.52Z"/><path class="cls-24" d="M2448.08,984.18s14.43,12.33,60.36,8c0,0-1.33,17.55,7.08,27,0,0-23.36,18.23-49.85,14,0,0-18.38-8.22-22-24.7S2448.08,984.18,2448.08,984.18Z"/><path class="cls-21" d="M2492.87,975.46a.75.75,0,0,1-.65-.37c-5-8.16-12-8.75-12-8.75a.76.76,0,1,1,.1-1.52c.32,0,7.84.62,13.22,9.48a.76.76,0,0,1-.25,1.05A.79.79,0,0,1,2492.87,975.46Z"/><path class="cls-21" d="M2462.12,967.8a.76.76,0,0,1-.4-1.41c.22-.14,5.47-3.35,11.33-2a.76.76,0,1,1-.33,1.49c-5.26-1.18-10.15,1.81-10.2,1.84A.72.72,0,0,1,2462.12,967.8Z"/><path class="cls-9" d="M2491.44,1228.49a32.37,32.37,0,0,1-8.05,25.52s.89,2.77,5.85,2.66c0,0,8.8-11.9,7.83-26.72A5.08,5.08,0,0,0,2491.44,1228.49Z"/><path class="cls-23" d="M2382.59,1570.56s101.86,56.18,217.58.47c0,0-.78-11.06-2.15-29.24-10.2,1.76-22.68,6.89-37.24,18.29-43.93,34.42-71,5.32-99.57,0-26.06-4.84-34.71,18.51-78.49-2.15C2382.63,1562.5,2382.59,1566.72,2382.59,1570.56Z"/></g><g id="_4" data-name="4"><path class="cls-25" d="M1408.4,206.49s13.57-25.39,54.92-17.89,51.1,58.34,65.14,81.48c29.72,49,38.63,101.11,23.19,126.13-17.16,27.79-55,16.92-110.35,11.94-59-5.32-83.75-55-47-123.22Z"/><path class="cls-10" d="M1425.54,324.54l0,0c-.09.15-.34.55-.74,1.17-6.12,9.49-45.32,72.26-47.76,123.6a79.36,79.36,0,0,1-2.71,17.11l-10.1-.72-13.68-1-36-2.57c-5.51-41,50.61-125.1,101.78-135.07h0l0,0A82.61,82.61,0,0,1,1425.54,324.54Z"/><path class="cls-16" d="M1185.77,942.06l82.22-.87c-.21-12.74-3.71-38.45-1.1-53l-35.49,4.44c1,7,3.17,22.12-8.79,25.74-15.49,4.69-32.35,3.25-42,14.8A5.82,5.82,0,0,0,1185.77,942.06Z"/><path class="cls-9" d="M1270.4,933.49a19.64,19.64,0,0,1-2.41,7.7l-83,.88a5.75,5.75,0,0,1-5.7-7.48c3-8.66,13.86-21.29,52.1-23.63,0,0,13.38,3,34.74-.94C1266.11,910,1271.66,922.55,1270.4,933.49Z"/><path class="cls-26" d="M1203.68,931.49a1.7,1.7,0,0,1-1.56-1c-3.12-7.24-8.63-9.41-8.87-9.5-4.4-6.49,8.16-2,12,8.24A1.65,1.65,0,0,1,1203.68,931.49Z"/><path class="cls-26" d="M1216.73,929.82a1.68,1.68,0,0,1-1.6-1.13,22.85,22.85,0,0,0-10.48-12.24c-4-7.56,10.6.42,13.68,11.24A1.65,1.65,0,0,1,1216.73,929.82Z"/><path class="cls-26" d="M1231.58,927.89a1.68,1.68,0,0,1-1.58-1.07,29.66,29.66,0,0,0-10.62-13.45c-3.12-7.93,10.18,1.58,13.78,12.34A1.64,1.64,0,0,1,1231.58,927.89Z"/><path class="cls-17" d="M1179.32,934.46l91.08-1a19.64,19.64,0,0,1-2.41,7.7l-83,.88A5.74,5.74,0,0,1,1179.32,934.46Z"/><path class="cls-27" d="M1446.24,637.91c-40.47-1.65-111-23.25-141.37,26.64-33.29,54.48-25.14,170.06-21.77,225.92-44.43,13.86-68.31,0-68.31,0-18.92-114.34-81.25-374.79,127.17-338.65,0,0,139.77,0,139.77,0C1505.11,598,1484.2,637.13,1446.24,637.91Z"/><path class="cls-16" d="M1284.37,942.06l82.21-.88c-.21-12.73-3.71-38.44-1.1-53L1330,892.65c1,7,3.45,22.12-8.79,25.74-15.52,4.59-32.35,3.25-42,14.79A5.82,5.82,0,0,0,1284.37,942.06Z"/><path class="cls-9" d="M1369,933.49a19.77,19.77,0,0,1-2.42,7.69l-83,.89a5.75,5.75,0,0,1-5.71-7.48c3.06-8.66,13.86-21.29,52.1-23.64,0,0,13.4,3.46,34.76-.52C1364.72,910.43,1370.25,922.55,1369,933.49Z"/><path class="cls-26" d="M1302.27,931.49a1.68,1.68,0,0,1-1.55-1c-3.13-7.24-8.64-9.4-8.87-9.49-4.41-6.49,8.15-2,12,8.24A1.64,1.64,0,0,1,1302.27,931.49Z"/><path class="cls-26" d="M1315.32,929.82a1.68,1.68,0,0,1-1.6-1.13,22.84,22.84,0,0,0-10.48-12.25c-4-7.55,10.61.42,13.68,11.25A1.65,1.65,0,0,1,1315.32,929.82Z"/><path class="cls-19" d="M1384.29,369.66s-31,25.84-41.1,59.52c-8.19,27.2,20,19.05,25.1,4.12S1384.29,369.66,1384.29,369.66Z"/><path class="cls-26" d="M1330.17,927.89a1.69,1.69,0,0,1-1.58-1.08A29.6,29.6,0,0,0,1318,913.37c-3.12-7.94,10.19,1.58,13.78,12.34A1.64,1.64,0,0,1,1330.17,927.89Z"/><path class="cls-17" d="M1277.91,934.45l91.09-1a19.77,19.77,0,0,1-2.42,7.69l-83,.89A5.75,5.75,0,0,1,1277.91,934.45Z"/><path class="cls-28" d="M1353.34,551.81l-12,84.44c-52.26,20-56,73.28-60.79,133.26C1256.38,676.84,1258.49,583.12,1353.34,551.81Z"/><path class="cls-27" d="M1498.91,641.82c-42.35,25.26-84.65-2.3-114.43,56-24,51-10.56,148.49-4,192.69-44.42,13.86-68.31,0-68.31,0-26.34-98.64-86.58-327.85,83.65-338.65,46.62-1.44,107.87-1.05,149.07-3.45C1544.93,548.37,1556.37,607.55,1498.91,641.82Z"/><path class="cls-13" d="M1545.75,525c3.61,25-1.62,54-1.62,54-55-16.95-105.06-18.51-188.65-29.83,52.79-153.22-69.49-46,70.08-224.71.33,0,34.67-.6,34.67-.6C1499.47,352.52,1524.63,394.06,1545.75,525Z"/><path class="cls-10" d="M1425.5,324.58c-.09.15-.34.55-.74,1.17-6.12,9.49-45.32,72.26-47.76,123.6a79.36,79.36,0,0,1-2.71,17.11c-12.92,48.47-68,90.25-106.51,115.61-42.93,28.3-57.27,87.41-51.43,144.64,0,0-3.42.52-8.4.81-7.28.43-17.91.4-26.12-2.35,0,0-10.38-68.47,9.43-110.67s63.34-65.9,117-81.85c2-.59,3.92-1.24,5.75-1.92,21-7.85,30.38-21.19,34.25-35.84h0c2.61-9.86,2.71-20.33,2.25-30.12-.39-8.21-1.22-16-1.35-22.5-.45-23.15,18.7-56.53,56.26-97.07Q1414.72,335.17,1425.5,324.58Z"/><path class="cls-10" d="M1554.86,543.23c-1,19.92-3.47,39.27-8.52,55.82-13.22,43.24-56.93,56.11-101.2,70.26s-45.51,57.4-45.51,57.4c-19,4.6-44.29,2.88-58.22,1.35-6.32-.7-10.3-1.35-10.3-1.35,9-109.71,71.7-132.29,105.18-162.32s5.83-91.45,6.33-135.21c.47-42.39,16.56-101.44,17.58-105.08,0-.06,0-.12,0-.18,2.45.94,4.84,1.9,7.16,2.93,64.17,27.87,81.62,84.74,84.69,125C1554.08,477.52,1556.45,511.12,1554.86,543.23Z"/><path class="cls-19" d="M1458.67,369.24c-4.09,22-7.88,46.46-7.42,59.94,1,28.32,19.51,89.29,8.38,122.63s-54.69,39.52-85,81.73-33.25,94.52-33.25,94.52c-6.32-.7-10.3-1.35-10.3-1.35,9-109.71,71.7-132.29,105.18-162.32s5.83-91.45,6.33-135.21c.47-42.39,16.56-101.44,17.58-105.08,0-.06,0-.12,0-.18,2.58,0,5.15.18,7.73.42-.11.47-.32,1.33-.57,2.51C1465.91,333.46,1462.18,350.43,1458.67,369.24Z"/><path class="cls-19" d="M1425.54,324.54l0,0c-.09.15-.34.55-.74,1.17-6.12,9.49-45.32,72.26-47.76,123.6a79.36,79.36,0,0,1-2.71,17.11c-12.92,48.47-68,90.25-106.51,115.61-42.93,28.3-57.27,87.41-51.43,144.64,0,0-3.42.52-8.4.81-10.53-72.3,19-130,43.46-146,14-9.12,40.62-30.86,62.6-50.82,16.46-15,30.3-28.91,34.25-35.84h0c5.41-9.53,11.56-19.6,15.93-29.14,3-6.62,5.2-13,5.67-18.74,1.1-14,.56-35.32,14.43-63.11,6.91-13.87,14.87-28,21.13-38.7s10.88-18.07,10.88-18.07l0,0A82.61,82.61,0,0,1,1425.54,324.54Z"/><polygon class="cls-18" points="1207.95 560.58 1392.94 560.58 1356.11 429.18 1172.24 429.18 1207.95 560.58"/><rect class="cls-29" x="1207.95" y="559.93" width="184.99" height="8.92"/><polygon class="cls-30" points="1353.33 429.18 1359.95 429.18 1396.03 559.93 1483.82 559.93 1483.82 568.85 1389.86 568.85 1389.86 560.87 1353.33 429.18"/><path class="cls-16" d="M1426.39,312.62l-.83,11.9a60.15,60.15,0,0,0,.2,12.33c1.55,10.08,12.15,13.32,19.38,7.33,6.75-5.6,15.09-20.26,15.09-20.26a104.06,104.06,0,0,1,.59-11.69Z"/><path class="cls-20" d="M1467.55,278.54c-.14.57-.31,1.14-.5,1.69-.74-.58-5,19.23-6.49,34.33-14.77,8.38-31.87,7.27-34.8,6.39.79-22.34,2.73-55.77,20.48-62C1458.15,255.28,1470.77,266.66,1467.55,278.54Z"/><path class="cls-25" d="M1422.78,204.94c-44.62-5.19-51.7,63.06-21.38,88.17Z"/><path class="cls-16" d="M1475.38,253c2.15,14.9,2.29,32.38-6.3,45.22h0c-23.47,37.2-101.15,13.22-79.86-30.89a43.11,43.11,0,0,0,5.12-18.28C1395,188.17,1469.16,201,1475.38,253Z"/><path class="cls-21" d="M1416.68,261c-2.13-2.07,1.27-5.25,3.33-3.13S1418.74,263.09,1416.68,261Z"/><path class="cls-21" d="M1397.06,263.49c-2.12-2.07,1.28-5.25,3.34-3.13S1399.13,265.62,1397.06,263.49Z"/><path class="cls-21" d="M1408.75,280.38c-3.93.61-9.61-.38-5.9-4.94,3.49-3.44,3.89-12.78,3.9-12.87a.88.88,0,0,1,1.75.06c0,.41-.43,10.09-4.4,14-.45.45-.91,1.06-.58,1.44.93,1.07,5.35,1.25,7.89-.47a.9.9,0,0,1,1.22.22C1413.28,279.59,1410.11,280,1408.75,280.38Z"/><path class="cls-20" d="M1475.38,253c2.15,14.9,2.29,32.38-6.3,45.22h0c4-9.63,2.48-28.09,2.48-28.09l-5.48-6.77c-55.93-.73-64.15-41.62-64.15-41.62C1426.49,189.78,1472.46,218.68,1475.38,253Z"/><path class="cls-25" d="M1406.2,216.64s8.31,40.27,58.93,42.7l13.57-13.61C1485,210.68,1442,174.79,1406.2,216.64Z"/><path class="cls-16" d="M1487,257.42c1.8,17.05-20.43,19-21.83,1.92C1463.34,242.3,1485.56,240.34,1487,257.42Z"/><path class="cls-21" d="M1481.73,253h0c-2.27-6.76-15.69.46-10,.72,0-.3,6-3.76,7.83-.76-5.86,2.68-7.82,13.26-4.42,9.84,0-.06.71-6.09,5.32-8.37C1482.77,269.84,1484.85,259.16,1481.73,253Z"/><path class="cls-5" d="M1480.15,267.6c.79,2.36-3.05,3.51-3.76,1.13S1479.44,265.22,1480.15,267.6Z"/><path class="cls-28" d="M1281.71,871.28c.73,12,1.39,19.19,1.39,19.19-44.43,13.86-68.31,0-68.31,0s-.9-6.11-2.82-16.46C1212.5,874.26,1240.1,887.68,1281.71,871.28Z"/><path class="cls-28" d="M1380.52,890.47c-44.42,13.86-68.31,0-68.31,0s-1.49-5.54-4-15.11c0,0,24.5,12.34,70,0C1379.54,884.82,1380.52,890.47,1380.52,890.47Z"/><path class="cls-21" d="M1424,254.06a1,1,0,0,1-.61-.21c-5.58-4.23-10.66-2.86-10.87-2.8a1,1,0,0,1-1.24-.65,1,1,0,0,1,.66-1.19c.25-.08,6.25-1.76,12.68,3.12a1,1,0,0,1,.17,1.36A1,1,0,0,1,1424,254.06Z"/><path class="cls-21" d="M1394.75,256.38a1,1,0,0,1-.56-.16.94.94,0,0,1-.27-1.34c.13-.19,3.23-4.57,8.4-4.38a1,1,0,1,1-.08,1.93c-4.06-.13-6.64,3.49-6.67,3.53A1,1,0,0,1,1394.75,256.38Z"/><path class="cls-21" d="M1416.24,289.49a3.92,3.92,0,0,1-3.17-1.36c-1.54-1.93-.52-5.12,2.32-7.25s6.29-2.28,7.83-.35h0c1.55,1.94.53,5.12-2.32,7.25A8,8,0,0,1,1416.24,289.49Zm3.81-8.37a5.91,5.91,0,0,0-3.44,1.29c-2.06,1.54-2.69,3.63-2,4.54s3,.85,5-.69,2.69-3.64,2-4.55h0A2,2,0,0,0,1420.05,281.12Z"/><path class="cls-16" d="M1520.94,353c42.64,31,65.42,86.71,54.16,137.39-4.32,28.47-22.86,55.55-51.86,63.61-14.32,5.55-81.11,14.47-78-8.5,1.06-5.51,6.11-7.54,11-9,8.06-2.76,16.36-5.8,24-9.18,13.75-6.91,31.43-13.39,34.42-28.35,6.38-34.93-8.39-69.08-35.33-91.88.05,0-.12-.1.27.18C1443.12,380.9,1484.22,327,1520.94,353Z"/><path class="cls-10" d="M1554.86,543.23q-4,2.34-8.35,4.53c-21.12,10.6-42.29,12.26-58.1,12.82,0,0,3.65-22.86-13.39-32.27,80.4-59.21-5.1-93.7-11.64-151.63-2.56-22.65,4.59-52.34,4.59-52.34C1566.2,333.34,1665.61,478.52,1554.86,543.23Z"/><path class="cls-16" d="M1404.5,559.93s8.24-27.92,57.42-24.7l10.3,24.7Z"/><path class="cls-19" d="M1499.82,559.81c-7,.76-11.41.77-11.41.77s3.65-22.86-13.39-32.27a94,94,0,0,0,9.67-7.33A41.66,41.66,0,0,1,1499.82,559.81Z"/><path class="cls-20" d="M1407.18,559.65c-8.74.26,23.08-20.89,32.57-15.72a1.36,1.36,0,0,1-1.25,1.48C1420.6,547.23,1408.69,559.59,1407.18,559.65Z"/><path class="cls-20" d="M1420.66,560.12c-6.63-2.74,14-7.44,24.17-10.12a1.41,1.41,0,0,1,1.66,1.06,1.37,1.37,0,0,1-1.09,1.6C1434.53,554.83,1421.76,560,1420.66,560.12Z"/><path class="cls-19" d="M1482.84,527.73a2.4,2.4,0,0,1-1.84-.86,2.23,2.23,0,0,1,.38-3.19c31.36-24.11,28.61-54.6,19.1-69.21-10.35-15.92-28.26-45-28.44-45.32a2.22,2.22,0,0,1,.82-3.11,2.37,2.37,0,0,1,3.2.78c.18.3,18.06,29.36,28.38,45.23s13.62,49.21-20.15,75.19A2.37,2.37,0,0,1,1482.84,527.73Z"/><path class="cls-19" d="M1495.65,560.27a2.31,2.31,0,0,1-2.33-2.1,2.29,2.29,0,0,1,2.16-2.43c.38,0,38.44-2.92,56-13.13a2.38,2.38,0,0,1,3.21.78,2.23,2.23,0,0,1-.79,3.11c-18.48,10.77-56.42,13.65-58,13.76Z"/></g><g id="_3" data-name="3"><path class="cls-4" d="M777,1021.21v614c0,19.33,66.71,35,149,35s149-15.67,149-35v-614Z"/><path class="cls-31" d="M1039.36,997.21c-29.22-7.42-69.22-12-113.36-12s-84.14,4.58-113.36,12H764v30c0,23.2,72.53,42,162,42s162-18.8,162-42v-30Z"/><ellipse class="cls-22" cx="926" cy="997.21" rx="162" ry="42"/><path class="cls-11" d="M907.6,1589.59l-46.68-3.48h0l-47.1-3.51a22.15,22.15,0,0,0-23.73,20.28c-1.91,32.94,47.52,23.45,67.54,27.42l0,0s47.11,3.53,47.11,3.54a22.13,22.13,0,0,0,16.11-5.31C935.85,1616.47,926.93,1590.38,907.6,1589.59Z"/><path class="cls-11" d="M1022.89,1581.13l-45.13,12.44h0l-45.53,12.56a22.15,22.15,0,0,0-15.51,27.09c9.29,31.66,52.64,6.07,72.82,3.08l0,0s45.55-12.54,45.55-12.54a22.08,22.08,0,0,0,13.38-10.43C1058.54,1596.94,1041.36,1575.37,1022.89,1581.13Z"/><path class="cls-11" d="M1008.45,1532.7c-15.67-29-52.76,5-71.88,12.11v0s-41.95,21.73-41.95,21.73a22,22,0,0,0-10.92,13c-6.47,18.13,14.82,35.66,31.69,26.18l41.56-21.54,0,0,41.93-21.74A22.16,22.16,0,0,0,1008.45,1532.7Z"/><path class="cls-11" d="M879.66,1523.49h0s-44.74-15.16-44.75-15.16a22.11,22.11,0,0,0-16.92,1.12c-17.54,7.91-15.42,35.4,3.11,41l44.34,15h0l44.73,15.14a22.15,22.15,0,0,0,28-13.72C948.29,1535.46,898.05,1532.33,879.66,1523.49Z"/><path class="cls-11" d="M997.09,1511h0s-41.5-22.58-41.5-22.59a22.15,22.15,0,0,0-16.87-1.78c-18.64,4.8-21.23,32.25-3.94,40.92l41.13,22.36,0,0,41.49,22.56a22.17,22.17,0,0,0,30-8.74C1062.67,1534.5,1013.7,1522.84,997.09,1511Z"/><path class="cls-11" d="M946.23,1455.29l-44.07,15.79h0L857.66,1487a22.17,22.17,0,0,0-13.45,28.18c11.64,30.88,52.95,2.12,72.85-2.38l0,0s44.48-15.92,44.48-15.91a22.1,22.1,0,0,0,12.56-11.4C983,1468.38,964.21,1448.16,946.23,1455.29Z"/><path class="cls-11" d="M1023.36,1451h0s-32.88-33.93-32.88-33.94a22.1,22.1,0,0,0-15.56-6.73c-19.22-1-29.89,24.45-16,37.88l32.59,33.61,0,0,32.87,33.9a22.15,22.15,0,0,0,31.21.61C1078.94,1493,1035.68,1467.24,1023.36,1451Z"/><path class="cls-11" d="M1001.06,1377.17l-43.56,17.15h0l-44,17.3A22.16,22.16,0,0,0,901,1440.21c12.59,30.51,53,.48,72.74-4.64,0,0,0,0,0,0s44-17.29,44-17.29a22.06,22.06,0,0,0,12.2-11.78C1038.18,1389.12,1018.82,1369.49,1001.06,1377.17Z"/><path class="cls-11" d="M929,1375.15l-44.85-13.41h0l-45.25-13.53a22.16,22.16,0,0,0-27.53,14.72c-8.94,31.77,41.38,33.1,60.08,41.27h0s45.26,13.55,45.27,13.55a22,22,0,0,0,16.87-1.73C950.83,1407.47,947.72,1380.07,929,1375.15Z"/><path class="cls-11" d="M883.13,1402.92l-38.31,26.9,0,0L806.14,1457a22.16,22.16,0,0,0-5.5,30.73c19.41,26.69,51.62-12,69.62-21.6v0S908.94,1439,908.94,1439a22.09,22.09,0,0,0,9.09-14.32C922,1405.81,898.58,1391.28,883.13,1402.92Z"/><path class="cls-11" d="M1053.56,1382.41l-31.06-35,0,0L991.13,1312a22.16,22.16,0,0,0-31.15-2c-24.33,22.3,17.75,49.93,29.33,66.73h0c-.05,0,31.33,35.36,31.33,35.36a22.08,22.08,0,0,0,15.25,7.42C1055.08,1421.37,1066.87,1396.44,1053.56,1382.41Z"/><path class="cls-11" d="M920.21,1281.53c-11.51-30.93-52.94-2.34-72.86,2.07a0,0,0,0,0,0,0c0-.05-44.55,15.73-44.56,15.73a22.11,22.11,0,0,0-12.6,11.34c-8.91,17.06,9.75,37.36,27.77,30.31l44.13-15.61h0l44.53-15.74A22.16,22.16,0,0,0,920.21,1281.53Z"/><path class="cls-11" d="M995.45,1275.89c13.81-30-35.68-39.18-52.86-50.19h0S900,1205.22,900,1205.22a22.07,22.07,0,0,0-16.93-.94c-18.38,5.72-19.6,33.26-1.9,41.06l42.19,20.28,0,0L966,1286.1A22.16,22.16,0,0,0,995.45,1275.89Z"/><path class="cls-11" d="M1057.21,1288.15c-24.84-21.72-47.68,23.13-63.11,36.49,0,0,0,0,0,0s-31.7,35-31.7,35a22.08,22.08,0,0,0-5.69,16c.28,19.24,26.35,28.22,38.84,13.44l31.4-34.72,0,0,31.67-35A22.17,22.17,0,0,0,1057.21,1288.15Z"/><path class="cls-11" d="M993.94,1342.45c-6.83-32.29-52-10.12-72.37-8.69l0,0s-46.38,9-46.38,9a22.06,22.06,0,0,0-14.15,9.36c-11.32,15.56,4.15,38.39,23,34.06l46-8.93h0l46.36-9A22.16,22.16,0,0,0,993.94,1342.45Z"/><path class="cls-11" d="M939.63,1492.51c13.63-30.06-35.91-39-53.16-49.87h0s-42.69-20.23-42.69-20.23a22.08,22.08,0,0,0-16.94-.84c-18.34,5.83-19.4,33.38-1.65,41.07l42.31,20,0,0,42.69,20.2A22.16,22.16,0,0,0,939.63,1492.51Z"/><path class="cls-11" d="M1012.52,1252c-23.48-23.19-49,20.21-65.19,32.61,0,0,0,0,0,0s-33.75,33-33.76,33a22.08,22.08,0,0,0-6.64,15.61c-.88,19.22,24.6,29.76,38,15.76l33.43-32.76,0,0,33.74-33A22.17,22.17,0,0,0,1012.52,1252Z"/></g><g id="_2" data-name="2"><path class="cls-16" d="M530.31,1673.76c10.52-13.9-2.28-77.4-1.83-93.64h47.79c.55,16.19-11.46,79.85-1.42,93.61C577.69,1678.7,527.45,1678.64,530.31,1673.76Z"/><path class="cls-16" d="M764.31,1692.87H680.65a8.42,8.42,0,0,1-8.39-9.19c.8-8.65,2.66-20.53,2.06-26,.33-5.07-7-70.73-7.51-77.53h52.7l-8.5,67.8a16.88,16.88,0,0,0,11.42,18.14c10.34,3.41,22.11,4.89,29.89,6.89,7.51,1.9,14.26,4.51,17.63,10.28A6.46,6.46,0,0,1,764.31,1692.87Z"/><path class="cls-17" d="M669.47,1684.05v.09a9.94,9.94,0,0,0,9.87,8.74h84.28a7.19,7.19,0,0,0,6.9-9.3c-4.44-13.88-18.36-22.47-57.83-25.93,0,0-14.52,4.32-38.38,0C674.32,1657.65,667.93,1671.48,669.47,1684.05Z"/><path class="cls-17" d="M534.19,1692.88H571a9.08,9.08,0,0,0,9.11-9.41c-1.59-34.6-53.64-34.89-55,0A9.09,9.09,0,0,0,534.19,1692.88Z"/><path class="cls-26" d="M743.8,1680.93a1.88,1.88,0,0,0,1.74-1.17c3.39-8.36,9.51-10.92,9.77-11,2.25-.87.86-4.41-1.39-3.49-.32.13-7.83,3.19-11.86,13.11A1.89,1.89,0,0,0,743.8,1680.93Z"/><path class="cls-26" d="M729.23,1679.17a1.87,1.87,0,0,0,1.79-1.32,26.09,26.09,0,0,1,11.53-14.21c2.16-1.09.41-4.48-1.73-3.33a29.49,29.49,0,0,0-13.38,16.44A1.88,1.88,0,0,0,729.23,1679.17Z"/><path class="cls-26" d="M712.65,1677.14a1.88,1.88,0,0,0,1.77-1.26,33.63,33.63,0,0,1,11.67-15.6c2-1.3-.06-4.5-2.07-3.12a37,37,0,0,0-13.14,17.49A1.89,1.89,0,0,0,712.65,1677.14Z"/><path class="cls-26" d="M539.06,1668.86c14.31-8.08,27,2.52,29.09-1.1,1.68-3.8-17.06-9.49-30-2.39A1.88,1.88,0,0,0,539.06,1668.86Z"/><path class="cls-32" d="M770.68,1684.05H669.47v.09a9.94,9.94,0,0,0,9.87,8.74h85.17a6.55,6.55,0,0,0,6.21-8.68A.88.88,0,0,1,770.68,1684.05Z"/><path class="cls-32" d="M533.44,1692.88H571.7a8.38,8.38,0,0,0,8.4-8.68v-.15H525.05a1.09,1.09,0,0,0,0,.18A8.37,8.37,0,0,0,533.44,1692.88Z"/><path class="cls-33" d="M658.65,829s4.82-27.16-19-35.94l-15,11.3Z"/><path class="cls-10" d="M699.89,1031.84c66.89,50.37,171.57,35.29,210.28-38l-9.8-20.37c-112.22,48.24-156.4-46.28-247.45-51.72l18.34,23.4S698.32,1030.23,699.89,1031.84Z"/><path class="cls-34" d="M522.7,1644.75s40.23,9.77,60.95-.73c10.79-67.64,40.73-256,51.16-385,.4,7.53,22.3,311,26.47,385,14.31,4.79,43.08,10.56,59.18-1,7.23-77.91,30.45-334.41-4.53-543.9,0,0-95.85,10.66-170.71-12C524.61,1153.58,519.15,1565,522.7,1644.75Z"/><path class="cls-16" d="M642.51,920c.67-20.67,3.23-61.64-13.54-67.14-12-4.18-26.29,6.08-22.59,19.65,1.09-.69,4.59,38,2.18,48.76C576.77,930.8,672.36,962.15,642.51,920Z"/><path class="cls-20" d="M606.06,870.75a17.55,17.55,0,0,0,.32,1.76c.79-.52,3,20.83,3,36.33,14.56,6.62,30.42,4,33.39,3.41.81-21.39,2.12-53.41-13.81-59.39C617.61,848,604.06,858.36,606.06,870.75Z"/><path class="cls-16" d="M583.17,856.48c2.45,15.17,7.57,32.27,19.55,42.31h0C620.21,912,645.8,910.61,663.57,896h0c13.71-12.81,18-30.06,10.83-43.35-4.72-7.84-13.41-14.73-15.76-23.66C638.31,769.62,574.54,802.84,583.17,856.48Z"/><path class="cls-21" d="M641.08,847.12c1.39-2.64-2.79-4.76-4.1-2.08S639.77,849.8,641.08,847.12Z"/><path class="cls-21" d="M660.39,843.88c1.38-2.64-2.79-4.76-4.1-2.08S659.08,846.55,660.39,843.88Z"/><path class="cls-20" d="M583.18,856.48c2.44,15.17,7.57,32.27,19.55,42.31h0a23,23,0,0,0,2.76,1.92c-9.13-9.05-14-28.09-14-28.09l2.15-16.45c14.72-14.91,8.38-31.69,8.38-31.69,24.62,6.91,32.91-8.28,32.91-8.28,7.79,1,16-3,16-3C622.87,772.67,574.51,815.77,583.18,856.48Z"/><path class="cls-33" d="M590.73,816.94c10.46,4.13,14.14,28.44-10.59,45.06C580.14,862,568.16,822,590.73,816.94Z"/><path class="cls-19" d="M891,977.34c-4.18,20.58,14,25.36,14,25.36a77.83,77.83,0,0,0,5.17-8.84l-9.8-20.37A95.79,95.79,0,0,0,891,977.34Z"/><path class="cls-21" d="M653.08,863.85c4.21-.05,10.75-2.89,5.43-6.62-4.34-2.35-7.53-11.35-7.56-11.44a.87.87,0,0,0-1.64.58c.14.39,3.45,9.72,8.37,12.39,3.4,2.08-3.69,4.1-6.61,3.07a.87.87,0,0,0-1.1.56C649.72,864,652,863.73,653.08,863.85Z"/><path class="cls-26" d="M535.61,1181.06c52,21.64,181.69,23.4,194.27,8.08,24.58-60.7-20.79-222.51-77-267.36-.49-.14-6.83-1.76-10.39-1.76.24,1,6.53,27.15-34,1.25-.23.27-9.88.44-12.45,2.21C599,965.81,516.69,1134.73,535.61,1181.06Z"/><path class="cls-19" d="M702.55,958.09l25.16,90.07C767,1069.79,834,1065.35,865.15,1041c-111.49,43.19-120.59-42.16-161.1-82.93Z"/><path class="cls-33" d="M594.8,793.58c8.2-9.72,23.12-14.47,26.54-24.37,0,0,5.06,9.48,4.47,20.07a78.29,78.29,0,0,0,10.46-14.54,23.44,23.44,0,0,1,6.82,13.49,42,42,0,0,1,24,2.34c-6.56,18.54-21.87,22.63-33.88,22.7-10,9.53-25.88,13.86-41.27,4.41l-14.82,19.17C556,800.33,594.8,793.58,594.8,793.58Z"/><path class="cls-35" d="M661.28,1644c.34-6.5-26.47-385-26.47-385s12.66,6.76,15.67,47c2.62,34.94,18.24,267.17,22.27,327.22,27.51,6.15,49-3.75,49-3.75-.84,8.8-1.25,13.57-1.25,13.57-13.17,9.48-34.82,7.34-50.09,3.63-3.71-.86-6.59-1.78-8-2.26Z"/><path class="cls-35" d="M522.7,1644.75s40.23,9.77,60.95-.73c0,0,.86-5.23,2.35-14.6,0,0-28.34,7.65-63.79-.29C522.05,1638.26,522.83,1644,522.7,1644.75Z"/><path class="cls-10" d="M497.16,1453.18a251.65,251.65,0,0,0,87.53,8.86c7.3-.61,11.41-1.37,11.41-1.37s12.87-266,16.77-322.17c6.31-58,10.93-192-16.77-215L586,925.21C518.72,1008.71,503.37,1412.28,497.16,1453.18Z"/><path class="cls-10" d="M719.51,1462.79a89,89,0,0,0,9.13.74c10.85.41,28.8-.63,38.84-10.35,1.28-21.47,18.69-503.68-102.3-530.28v0a50,50,0,0,0-12.25-1.11C731.92,996.1,727.31,1400.33,719.51,1462.79Z"/><path class="cls-10" d="M603.93,886.38S646,911.46,663.58,896c15.52-13.62,18-30,10.83-43.35,0,0-19.79,6.89-64.51,5C609.9,857.67,613,877.84,603.93,886.38Z"/><path class="cls-21" d="M609.9,858.54a.87.87,0,0,0,.23-1.71l-18.52-5C585.6,853.76,610.11,858,609.9,858.54Z"/><path class="cls-21" d="M603.93,887.25a.87.87,0,0,0,.48-1.59c-.53.16-18.07-13.23-18.2-11C584.9,876,603.32,886.76,603.93,887.25Z"/><path class="cls-16" d="M573.54,864.14c3.73,17.25,24.79,12.8,21.22-4.48C591,842.42,570,846.87,573.54,864.14Z"/><path class="cls-21" d="M579,867.71a.88.88,0,0,0,.83-1.13c-3.28-9.17.78-13,7-10.48,6.08-2.07-15.45-7.68-8.63,11A.86.86,0,0,0,579,867.71Z"/><path class="cls-21" d="M587.12,866.49c2.64-.37-2.36-8.44-9-9a.87.87,0,0,0-.12,1.74C584.69,859.93,585.53,866.27,587.12,866.49Z"/><path class="cls-19" d="M594.41,974.33c4.35,33.87-27.51,88.5,22.34,103.8l-37.54,9-10.48-40.6Z"/><path class="cls-19" d="M719.51,1462.79a89,89,0,0,0,9.13.74c7.4-70.18,5.32-160.26,3.66-204.54-1.74-45.72-7.3-140.18-22.65-223.4S665.18,922.9,665.18,922.9v0a50,50,0,0,0-12.25-1.11C731.92,996.1,727.31,1400.33,719.51,1462.79Z"/><path class="cls-19" d="M528.68,1125.18l-.65,6.42c29.63,14.63,84.85,6.91,84.85,6.91q.84-12.84,1.63-24.66l-78.06-22.92C533.94,1104.62,530.62,1111,528.68,1125.18Z"/><path class="cls-19" d="M584.69,1462c7.3-.61,11.41-1.37,11.41-1.37s12.87-266,16.77-322.17c6.31-58,10.93-192-16.77-215L586,925.21c9.32,5.5,22.15,46,21.79,102.46-.48,75.65-8.17,167.47-12,231.32C592.5,1313.74,586.37,1430,584.69,1462Z"/><path class="cls-21" d="M630.12,843.54a.7.7,0,0,0,.64-.41c3.06-6.7,10.25-6.54,10.3-6.53a.73.73,0,0,0,.73-.68.7.7,0,0,0-.68-.73c-.08,0-8.19-.19-11.63,7.35a.71.71,0,0,0,.35.94A.72.72,0,0,0,630.12,843.54Z"/><path class="cls-21" d="M659.05,835.43a.71.71,0,0,0,.43-1.27c-.16-.12-4.06-3-10.46-.73a.71.71,0,0,0,.47,1.33c5.65-2,9,.43,9.14.53A.71.71,0,0,0,659.05,835.43Z"/><path class="cls-36" d="M596.12,923.48c8.67,8.14,61.53,43.4,56.8-1.7-.49-.14-6.83-1.76-10.39-1.76.24,1,4.34,25.47-34,1.25C608.39,921.16,598.63,921.84,596.12,923.48Z"/><path class="cls-16" d="M920,940.16c4.33,1.85-4.17,12.1-4.29,16.48a73.71,73.71,0,0,0,15.19-7.38q11-10.77,20.94-22.64c2.06-2.58,6.25.47,4.37,3.23-5.45,8.44-11.3,16.66-17.53,24.55l.1.11a235.78,235.78,0,0,0,24.85-17.88,5.24,5.24,0,0,1,3.45-1.27c10.93.2-21.63,24.63-24.23,26.85l0,.07a134.54,134.54,0,0,0,25.34-14,5.31,5.31,0,0,1,4-.94c9.68,1.86-24.31,23.2-27.69,24.53,0,0,0,.08,0,.12A134.47,134.47,0,0,0,966,964.17a5.3,5.3,0,0,1,3.59-.32c9.79,2.72-22,16.91-25.23,17.92a88.94,88.94,0,0,1-35,13.59c-6,.91-14.31-13.67-11.52-21,1.59-4.14,7.37-13.42,8.91-15.67C908.67,954.39,914.52,938.51,920,940.16Z"/><path class="cls-13" d="M768.63,958.73s127.5,104,127.35,104.06l-109.9,134.62c-43.53,57.12-141.88,28.73-146.54-42.56a82,82,0,0,1,18.12-60.3S768.54,958.58,768.63,958.73Z"/><path class="cls-10" d="M995.73,811.51a82.26,82.26,0,0,1,11.21,115.35L896.07,1062.67c-.14.15-127.49-104-127.45-104C823.3,906.2,899.58,735.61,995.73,811.51Z"/><path class="cls-16" d="M706,1067.44c3,3.66-9.34,8.74-11.49,12.55a73.57,73.57,0,0,0,16.87.59c9.87-2.91,19.56-6.34,29.1-10.21,3-1.31,5.31,3.34,2.35,4.9-8.77,4.9-17.78,9.43-27,13.48a.66.66,0,0,0,0,.15,234.62,234.62,0,0,0,30.32-4.17,5.3,5.3,0,0,1,3.65.49c9.57,5.3-30.64,11.65-34,12.39v.08a134.84,134.84,0,0,0,29-.54,5.3,5.3,0,0,1,4,1c7.68,6.18-32.34,9.13-36,8.72l0,.12a133.48,133.48,0,0,0,22.62,3.17,5.3,5.3,0,0,1,3.33,1.4c7.38,7-27.33,4.66-30.68,4-4,.23-16.14,4.72-34.39-1.64-5.69-2-8.23-28.34-2.46-29.66,4.33-1,12-5.4,14.41-6.67C689.32,1074.72,701.92,1063.41,706,1067.44Z"/><path class="cls-10" d="M661.17,1118.37c4.1-1.35,8.27-2.82,12.53-4.38.7-3.67,5-21-2.46-29.66C493.11,1076.55,629,1015.22,586,925.21,458.25,933.64,394.2,1193.3,661.17,1118.37Z"/><path class="cls-19" d="M661.16,1118.37c4.11-1.35,8.28-2.82,12.54-4.38.7-3.67,5-21-2.46-29.66,0,0-4.88-.52-10.08-.52C661.16,1083.81,670,1099.29,661.16,1118.37Z"/></g><g id="_1" data-name="1"><path class="cls-31" d="M2120.12,1254.45h44.15a74.11,74.11,0,0,1,74.11,74.11V1611.7a0,0,0,0,1,0,0H2046a0,0,0,0,1,0,0V1328.56A74.11,74.11,0,0,1,2120.12,1254.45Z"/><ellipse class="cls-31" cx="2142.19" cy="1611.7" rx="96.18" ry="30.47"/><rect class="cls-31" x="2087.19" y="1225.11" width="110.01" height="37.05"/><path class="cls-15" d="M2059.82,1424.14v166.41c0,16.83,36.88,30.48,82.37,30.48s82.38-13.65,82.38-30.48V1424.14Z"/><ellipse class="cls-14" cx="2142.19" cy="1424.14" rx="82.37" ry="30.47"/><path class="cls-15" d="M2123.3,1417.31c0,13.41,8.46,24.28,18.89,24.28s18.89-10.87,18.89-24.28V1252.76c0-3.22-37.78-3.22-37.78,0Z"/><path class="cls-22" d="M2066.48,1176.5v67.13c0,8.54,33.9,15.46,75.71,15.46s75.71-6.92,75.71-15.46V1176.5Z"/><ellipse class="cls-31" cx="2142.19" cy="1176.5" rx="75.71" ry="15.45"/><path class="cls-37" d="M2166.48,1077.22a24.29,24.29,0,1,0-48.57,0v99.28h0c0,3.22,10.87,5.83,24.28,5.83s24.29-2.61,24.29-5.83h0Z"/></g></g></g></svg>